<svg width="210" height="80" viewBox="0 0 210 80" fill="none" xmlns="http://www.w3.org/2000/svg">
<path d="M12.6501 69.5308C12.6537 69.9794 12.5725 70.4246 12.4109 70.8428C12.256 71.2325 12.0262 71.5877 11.7347 71.8881C11.3726 72.2493 10.9382 72.529 10.4603 72.7087C9.86228 72.9097 9.23373 73.0035 8.60338 72.9857H7.41744V76.9529H6.02344V66.3373H8.66059C9.19364 66.3283 9.72595 66.3809 10.247 66.4941C10.661 66.5945 11.0526 66.7717 11.4018 67.0167C11.7879 67.2856 12.1038 67.6443 12.3224 68.0621C12.546 68.5186 12.6583 69.0221 12.6501 69.5308ZM11.1989 69.5674C11.2064 69.2387 11.1425 68.9123 11.0117 68.6109C10.8867 68.3458 10.6903 68.1213 10.4447 67.9628C10.2115 67.8066 9.94989 67.6982 9.67488 67.644C9.31262 67.5799 8.94517 67.5501 8.57737 67.5551H7.41744V71.8045H8.36931C8.82944 71.8164 9.28918 71.769 9.7373 71.6634C10.071 71.5771 10.3727 71.3955 10.606 71.1407C10.8049 70.9424 10.9592 70.7036 11.0585 70.4403C11.1546 70.165 11.2022 69.8749 11.1989 69.5831V69.5674Z" fill="#3D3D3D"/>
<path d="M15.2353 76.979H13.9089V65.8721H15.2353V76.979Z" fill="#3D3D3D"/>
<path d="M23.3184 76.979H21.992V76.0905C21.6327 76.4146 21.2343 76.6921 20.8061 76.9163C20.4252 77.1076 20.0043 77.2044 19.5785 77.1985C19.2488 77.2001 18.9213 77.1435 18.611 77.0313C18.3083 76.9229 18.0355 76.7437 17.8152 76.5086C17.5794 76.2362 17.4023 75.9176 17.2951 75.573C17.1605 75.1277 17.0973 74.6637 17.1078 74.1984V69.0082H18.4342V73.5502C18.431 73.8993 18.4466 74.2483 18.481 74.5956C18.5052 74.8503 18.5757 75.0983 18.6891 75.3274C18.7868 75.5194 18.9412 75.6764 19.1312 75.7769C19.3811 75.8885 19.6539 75.9386 19.927 75.9232C20.2911 75.9133 20.6477 75.8165 20.9673 75.641C21.3317 75.4575 21.6709 75.2274 21.9764 74.9563V69.0082H23.3028L23.3184 76.979Z" fill="#3D3D3D"/>
<path d="M34.1791 76.979V72.3638C34.1791 72.0153 34.1635 71.6756 34.1323 71.3445C34.1208 71.092 34.0626 70.8439 33.9606 70.6128C33.8754 70.4306 33.7328 70.2818 33.5549 70.1894C33.3345 70.0901 33.0941 70.0436 32.8527 70.0535C32.5428 70.0625 32.2403 70.1506 31.9737 70.3096C31.6192 70.51 31.2922 70.756 31.001 71.0414C31.001 71.1198 31.001 71.2191 31.001 71.3288C31.001 71.4386 31.001 71.5745 31.001 71.7261V76.979H29.7058V72.3638C29.7058 71.9979 29.7058 71.6581 29.6642 71.3445C29.6488 71.092 29.5889 70.8443 29.4874 70.6128C29.4041 70.431 29.2633 70.2821 29.0868 70.1894C28.8648 70.0893 28.6226 70.0428 28.3794 70.0535C28.0608 70.0619 27.7501 70.1558 27.4796 70.3253C27.1463 70.5194 26.8372 70.7528 26.5589 71.0205V76.979H25.2325V69.0081H26.5589V69.8915C26.8669 69.5731 27.217 69.2988 27.5992 69.0761C27.9418 68.8813 28.3292 68.7804 28.7227 68.7834C29.1571 68.7754 29.5854 68.8875 29.9607 69.1075C30.3454 69.3514 30.6354 69.7203 30.7825 70.1528C31.121 69.75 31.5151 69.398 31.9529 69.1075C32.3271 68.8775 32.7574 68.7562 33.196 68.7573C33.5101 68.755 33.8221 68.8099 34.1167 68.9193C34.398 69.0316 34.6479 69.211 34.8449 69.442C35.0684 69.7081 35.2349 70.0177 35.3338 70.3514C35.4613 70.7945 35.5209 71.2545 35.5107 71.7156V76.9686L34.1791 76.979Z" fill="#3D3D3D"/>
<path d="M43.9735 72.8551C44.0253 73.977 43.6951 75.0832 43.0372 75.9912C42.7675 76.3629 42.4136 76.6649 42.0048 76.8721C41.596 77.0793 41.144 77.1858 40.6862 77.1829C40.3143 77.1909 39.9436 77.1379 39.5887 77.0261C39.2748 76.9126 38.9733 76.7672 38.6888 76.5922L38.6056 76.9633H37.3676V65.8721H38.6888V69.8444C39.0168 69.5454 39.3823 69.2906 39.7759 69.0865C40.1878 68.8812 40.6425 68.7772 41.1023 68.7834C41.512 68.7749 41.9172 68.87 42.2808 69.0599C42.6443 69.2499 42.9545 69.5287 43.1829 69.8706C43.7495 70.7583 44.026 71.8018 43.9735 72.8551ZM42.6055 72.9648C42.6494 72.2165 42.5007 71.4695 42.1738 70.7957C42.0362 70.5535 41.8334 70.3553 41.5886 70.224C41.3438 70.0927 41.067 70.0336 40.7902 70.0535C40.4121 70.0597 40.0397 70.147 39.6979 70.3096C39.3331 70.4795 38.9935 70.6994 38.6888 70.963V75.5364C38.9742 75.6811 39.2719 75.8001 39.5783 75.8918C39.8573 75.9611 40.1439 75.9945 40.4313 75.9912C40.7344 76.0076 41.0371 75.9518 41.3146 75.8282C41.5921 75.7047 41.8366 75.5169 42.0282 75.2803C42.4706 74.5941 42.6737 73.7796 42.6055 72.9648Z" fill="#3D3D3D"/>
<path d="M46.8135 67.6596H45.3051V66.2693H46.8135V67.6596ZM46.7251 76.979H45.3779V69.0082H46.7043L46.7251 76.979Z" fill="#3D3D3D"/>
<path d="M54.8394 76.979H53.5183V72.4317C53.5195 72.0824 53.5004 71.7334 53.461 71.3863C53.4433 71.1235 53.3762 70.8663 53.2634 70.6285C53.163 70.4348 53.0047 70.2776 52.8108 70.179C52.5581 70.0783 52.2863 70.0354 52.015 70.0535C51.652 70.057 51.2951 70.1484 50.9747 70.3201C50.6022 70.5123 50.2531 70.7474 49.9344 71.0205V76.979H48.6497V69.0081H49.976V69.8915C50.3282 69.567 50.7218 69.291 51.1464 69.0709C51.5264 68.8819 51.9447 68.7835 52.3687 68.7834C52.7103 68.7662 53.0513 68.8274 53.3658 68.9623C53.6803 69.0973 53.9602 69.3024 54.184 69.5622C54.6619 70.209 54.8943 71.006 54.8394 71.8097V76.979Z" fill="#3D3D3D"/>
<path d="M56.9876 78.2596L57.383 78.4112C57.5546 78.4739 57.7523 78.5366 57.9707 78.5941C58.1892 78.6516 58.4441 78.7039 58.6521 78.7457C58.8754 78.7848 59.1017 78.804 59.3283 78.8032C59.6823 78.8111 60.0348 78.7544 60.3686 78.6359C60.6253 78.5435 60.8545 78.3871 61.0344 78.1812C61.1863 77.9795 61.2944 77.748 61.3517 77.5017C61.4176 77.2138 61.4491 76.919 61.4453 76.6236V75.9232C61.1351 76.2058 60.7844 76.4402 60.405 76.6184C59.9932 76.7817 59.5523 76.8582 59.1099 76.8431C58.6983 76.8567 58.2894 76.7718 57.9168 76.5955C57.5442 76.4192 57.2186 76.1566 56.9668 75.8291C56.3839 74.974 56.1036 73.9469 56.171 72.9126C56.1618 72.3139 56.2551 71.7181 56.4467 71.1511C56.61 70.6748 56.8605 70.2334 57.1853 69.8497C57.4698 69.5113 57.825 69.24 58.2256 69.0552C58.6194 68.8693 59.0492 68.7729 59.4844 68.7729C59.8364 68.7701 60.1869 68.8194 60.5247 68.9193C60.8382 69.027 61.1398 69.1671 61.4245 69.3374L61.4973 68.9977H62.7457V76.0696C62.7457 77.4215 62.4544 78.4146 61.8718 79.0488C61.2893 79.6865 60.3998 80.0001 59.1983 80.0001C58.4179 79.9987 57.6419 79.8843 56.894 79.6604V78.2596H56.9876ZM61.4453 74.8151V70.4351C61.1524 70.2884 60.8457 70.1711 60.5299 70.0849C60.2556 70.0184 59.9745 69.985 59.6924 69.9856C59.3876 69.9725 59.0842 70.0336 58.808 70.1638C58.5317 70.2939 58.2909 70.4892 58.106 70.733C57.6826 71.3673 57.4796 72.1243 57.5286 72.8864C57.4851 73.5889 57.6382 74.2897 57.9707 74.9092C58.1255 75.1414 58.3393 75.3278 58.5899 75.4491C58.8405 75.5704 59.1187 75.6222 59.3959 75.5991C59.7525 75.5936 60.105 75.5227 60.4362 75.3901C60.8028 75.2578 61.1441 75.0633 61.4453 74.8151Z" fill="#3D3D3D"/>
<path d="M74.0017 72.2488C74.0017 72.9114 73.7408 73.5472 73.276 74.0173C72.8111 74.4873 72.1801 74.7535 71.5206 74.7576C71.1945 74.7621 70.871 74.699 70.5703 74.5722C70.2696 74.4454 69.9982 74.2576 69.7729 74.0206C69.306 73.5503 69.0438 72.9131 69.0438 72.2488C69.0438 71.5844 69.306 70.9472 69.7729 70.4769C70.0014 70.2435 70.2738 70.0581 70.5743 69.9315C70.8748 69.805 71.1974 69.7398 71.5232 69.7398C71.849 69.7398 72.1716 69.805 72.4721 69.9315C72.7726 70.0581 73.045 70.2435 73.2735 70.4769C73.5091 70.7064 73.6953 70.9821 73.8205 71.2869C73.9458 71.5917 74.0075 71.9191 74.0017 72.2488Z" fill="#3D3D3D"/>
<path d="M92.1653 66.3373L89.5282 76.979H87.9677L85.8351 68.1457L83.7545 76.979H82.1837L79.4945 66.3373H80.9249L83.0419 75.1862L85.1225 66.3373H86.5425L88.6959 75.2803L90.7765 66.3477L92.1653 66.3373Z" fill="#3D3D3D"/>
<path d="M96.1913 77.1672C95.6565 77.1996 95.1208 77.1207 94.6178 76.9355C94.1148 76.7502 93.6553 76.4625 93.268 76.0905C92.9029 75.6747 92.6231 75.1905 92.4445 74.6658C92.266 74.1411 92.1924 73.5862 92.2277 73.0328C92.1694 71.9079 92.529 70.8014 93.2368 69.9281C93.5632 69.5505 93.9693 69.2509 94.4255 69.051C94.8817 68.8512 95.3766 68.7562 95.874 68.7729C96.3167 68.7661 96.757 68.8387 97.1744 68.9872C97.549 69.1336 97.8853 69.3643 98.1575 69.6615C98.4516 69.9831 98.6733 70.3646 98.8076 70.78C98.9701 71.3042 99.0456 71.8516 99.0313 72.4003V73.1269H93.5749C93.5208 73.9011 93.769 74.666 94.2667 75.2594C94.5163 75.5087 94.8152 75.7026 95.144 75.8286C95.4728 75.9547 95.8243 76.01 96.1757 75.9912C96.4647 75.9924 96.7528 75.9591 97.0339 75.8918C97.2948 75.8318 97.5492 75.746 97.7933 75.6357C98.0016 75.5438 98.2033 75.4372 98.3967 75.3169C98.5393 75.2294 98.6765 75.1334 98.8076 75.0294H98.8857V76.4929L98.3083 76.7229C98.1061 76.8073 97.8994 76.8806 97.6893 76.9424C97.4292 77.0156 97.1952 77.0679 96.9871 77.1097C96.7239 77.1512 96.4577 77.1704 96.1913 77.1672ZM97.7517 72.0972C97.7505 71.7812 97.7085 71.4667 97.6269 71.1616C97.5632 70.9214 97.4537 70.696 97.3044 70.4978C97.1473 70.2958 96.9414 70.1375 96.7062 70.0378C96.4198 69.9253 96.1138 69.872 95.8064 69.881C95.4987 69.8745 95.1928 69.9296 94.9065 70.0431C94.656 70.1571 94.4285 70.3165 94.2355 70.5135C94.0425 70.7145 93.889 70.9504 93.783 71.2086C93.6714 71.4926 93.6047 71.7925 93.5853 72.0972H97.7517Z" fill="#3D3D3D"/>
<path d="M101.726 76.979H100.389V65.8721H101.71L101.726 76.979Z" fill="#3D3D3D"/>
<path d="M105.07 76.979H103.744V65.8721H105.07V76.979Z" fill="#3D3D3D"/>
<path d="M116.337 72.2488C116.335 72.9119 116.073 73.5477 115.608 74.0176C115.142 74.4875 114.51 74.7535 113.85 74.7576C113.524 74.7621 113.201 74.699 112.9 74.5722C112.599 74.4454 112.328 74.2576 112.103 74.0206C111.636 73.5503 111.374 72.9131 111.374 72.2488C111.374 71.5844 111.636 70.9472 112.103 70.4769C112.331 70.2435 112.604 70.0581 112.904 69.9315C113.205 69.805 113.527 69.7398 113.853 69.7398C114.179 69.7398 114.501 69.805 114.802 69.9315C115.102 70.0581 115.375 70.2435 115.603 70.4769C115.84 70.7062 116.026 70.9817 116.153 71.2865C116.279 71.5912 116.341 71.9187 116.337 72.2488Z" fill="#3D3D3D"/>
<path d="M125.642 77.1724C124.987 77.1871 124.334 77.1061 123.702 76.932C123.183 76.7801 122.678 76.5825 122.194 76.3413V74.5695H122.292C122.743 75.0125 123.272 75.367 123.853 75.6148C124.386 75.8448 124.958 75.9673 125.538 75.9755C126.161 76.0214 126.781 75.8477 127.291 75.4842C127.483 75.3317 127.637 75.1358 127.74 74.9124C127.843 74.689 127.893 74.4444 127.884 74.1984C127.901 73.8244 127.791 73.4558 127.572 73.153C127.313 72.856 126.967 72.6492 126.584 72.5624C126.261 72.4683 125.965 72.3899 125.694 72.3272L124.685 72.0763C124.348 71.992 124.022 71.8692 123.712 71.7104C123.428 71.5649 123.171 71.3703 122.953 71.1355C122.727 70.897 122.551 70.6164 122.433 70.3096C122.307 69.9578 122.245 69.5859 122.251 69.212C122.246 68.7928 122.335 68.3779 122.513 67.9986C122.69 67.6192 122.951 67.2853 123.275 67.022C123.985 66.4211 124.892 66.108 125.819 66.1439C126.379 66.1418 126.937 66.2032 127.483 66.3268C127.988 66.4414 128.477 66.6169 128.94 66.8495V68.543H128.836C128.455 68.2027 128.021 67.9273 127.551 67.7276C127.033 67.4984 126.473 67.3809 125.907 67.3826C125.351 67.3598 124.803 67.5214 124.347 67.8426C124.157 67.9808 124.003 68.1634 123.899 68.3746C123.795 68.5859 123.743 68.8195 123.749 69.0552C123.727 69.4452 123.852 69.8291 124.097 70.1319C124.379 70.4268 124.741 70.6321 125.138 70.7225C125.434 70.8009 125.793 70.895 126.225 70.9943C126.656 71.0936 127.005 71.1929 127.265 71.2766C127.889 71.4361 128.447 71.7913 128.857 72.2906C129.207 72.7762 129.39 73.3635 129.377 73.9632C129.376 74.3852 129.291 74.8028 129.127 75.1915C128.974 75.5886 128.734 75.9459 128.425 76.2368C128.09 76.5461 127.7 76.7891 127.275 76.9529C126.75 77.1289 126.195 77.2034 125.642 77.1724Z" fill="#3D3D3D"/>
<path d="M134.105 77.1672C133.57 77.199 133.035 77.1198 132.532 76.9346C132.029 76.7493 131.569 76.462 131.182 76.0905C130.817 75.6747 130.537 75.1905 130.358 74.6658C130.18 74.1411 130.106 73.5862 130.141 73.0328C130.083 71.9079 130.443 70.8014 131.151 69.9281C131.477 69.5511 131.884 69.2518 132.34 69.0521C132.796 68.8523 133.29 68.7569 133.788 68.7729C134.23 68.7657 134.671 68.8383 135.088 68.9872C135.464 69.1336 135.802 69.3642 136.076 69.6615C136.369 69.9834 136.589 70.3649 136.721 70.78C136.886 71.3038 136.963 71.8513 136.95 72.4003V73.1269H131.489C131.437 73.9007 131.685 74.6646 132.18 75.2594C132.431 75.5091 132.731 75.7032 133.06 75.8292C133.39 75.9553 133.742 76.0104 134.095 75.9912C134.382 75.9926 134.668 75.9592 134.948 75.8918C135.209 75.8318 135.463 75.746 135.707 75.6357C135.916 75.5426 136.12 75.4361 136.316 75.3169C136.457 75.2295 136.592 75.1335 136.721 75.0294H136.799V76.4929L136.222 76.7229C136.02 76.8073 135.813 76.8806 135.603 76.9424C135.343 77.0156 135.109 77.0679 134.901 77.1097C134.638 77.1514 134.371 77.1706 134.105 77.1672ZM135.665 72.0972C135.662 71.781 135.619 71.4665 135.535 71.1616C135.472 70.9214 135.362 70.696 135.213 70.4978C135.056 70.2958 134.85 70.1375 134.615 70.0378C134.33 69.9253 134.026 69.872 133.72 69.881C133.412 69.874 133.106 69.9291 132.82 70.0431C132.307 70.2689 131.902 70.6871 131.691 71.2086C131.582 71.4934 131.516 71.7928 131.494 72.0972H135.665Z" fill="#3D3D3D"/>
<path d="M144.898 72.7767C144.958 73.9133 144.625 75.0359 143.957 75.9546C143.681 76.3265 143.321 76.6275 142.907 76.8328C142.493 77.0382 142.036 77.142 141.574 77.1358C141.223 77.1408 140.872 77.095 140.534 76.9999C140.208 76.8998 139.897 76.7575 139.608 76.5766V79.9217H138.282V69.0082H139.608V69.8444C139.937 69.5433 140.307 69.29 140.706 69.0918C141.114 68.8856 141.565 68.7799 142.022 68.7834C142.437 68.769 142.848 68.8613 143.218 69.0516C143.587 69.2418 143.903 69.5237 144.133 69.8706C144.678 70.7377 144.945 71.7522 144.898 72.7767ZM143.53 72.9283C143.567 72.1956 143.419 71.4653 143.098 70.8062C142.96 70.5616 142.756 70.3613 142.509 70.2281C142.263 70.095 141.984 70.0345 141.704 70.0535C141.325 70.053 140.952 70.1407 140.612 70.3096C140.253 70.4845 139.918 70.704 139.613 70.963V75.4842C139.899 75.6318 140.198 75.7491 140.508 75.8344C140.786 75.9007 141.07 75.9323 141.356 75.9284C141.665 75.9423 141.972 75.88 142.251 75.747C142.53 75.6139 142.773 75.4142 142.958 75.1653C143.382 74.5002 143.582 73.7162 143.53 72.9283Z" fill="#3D3D3D"/>
<path d="M148.659 77.1358C148.348 77.1546 148.037 77.1085 147.746 77.0006C147.454 76.8926 147.187 76.7251 146.963 76.5086C146.512 75.955 146.295 75.2455 146.36 74.5329V70.111H145.46V69.0082H146.36V66.7136H147.681V69.0082H150.126V70.1215H147.681V73.9161C147.681 74.3238 147.681 74.6322 147.707 74.8517C147.718 75.0662 147.773 75.2762 147.868 75.4685C147.947 75.6363 148.084 75.7699 148.253 75.8448C148.485 75.9333 148.733 75.9742 148.981 75.965C149.195 75.9657 149.407 75.934 149.611 75.8709C149.76 75.8268 149.906 75.7727 150.048 75.7089H150.126V76.9163C149.877 76.99 149.623 77.0459 149.366 77.0836C149.132 77.1199 148.896 77.1374 148.659 77.1358Z" fill="#3D3D3D"/>
<path d="M152.549 67.6596H151.041V66.2693H152.549V67.6596ZM152.456 76.979H151.135V69.0082H152.456V76.979Z" fill="#3D3D3D"/>
<path d="M157.538 77.1567C157.031 77.1629 156.527 77.078 156.05 76.9058C155.609 76.7413 155.211 76.4786 154.885 76.1375C154.545 75.7642 154.288 75.3223 154.131 74.8413C153.939 74.2457 153.847 73.6221 153.86 72.9962C153.847 72.3797 153.942 71.7657 154.141 71.1825C154.306 70.7106 154.559 70.2744 154.885 69.8967C155.205 69.543 155.602 69.2677 156.045 69.0918C156.52 68.9015 157.027 68.8056 157.538 68.8095C157.961 68.8081 158.382 68.8715 158.786 68.9977C159.157 69.1083 159.517 69.2517 159.863 69.4263V70.9316H159.785C159.691 70.8532 159.571 70.7591 159.421 70.6546C159.254 70.5372 159.081 70.4306 158.9 70.3358C158.694 70.228 158.476 70.1439 158.25 70.0849C158.017 70.0143 157.776 69.9773 157.532 69.9751C157.214 69.9663 156.899 70.0332 156.611 70.1704C156.324 70.3076 156.073 70.5111 155.878 70.7644C155.477 71.4342 155.265 72.2013 155.265 72.9831C155.265 73.765 155.477 74.5321 155.878 75.2019C156.073 75.4604 156.327 75.6674 156.619 75.805C156.91 75.9425 157.231 76.0064 157.553 75.9912C157.979 75.9934 158.4 75.9005 158.786 75.7194C159.17 75.5464 159.521 75.3096 159.826 75.019H159.904V76.5295L159.41 76.7543C159.242 76.8322 159.068 76.8986 158.89 76.9529C158.666 77.0156 158.464 77.0679 158.287 77.1045C158.039 77.1478 157.788 77.1653 157.538 77.1567Z" fill="#3D3D3D"/>
<path d="M168.617 77.1724C167.96 77.187 167.305 77.1061 166.671 76.932C166.154 76.7801 165.651 76.5825 165.168 76.3414V74.5695H165.267C165.717 75.0136 166.246 75.3683 166.828 75.6148C167.36 75.8448 167.933 75.9674 168.513 75.9755C169.134 76.0206 169.752 75.8469 170.261 75.4842C170.453 75.3317 170.607 75.1358 170.71 74.9124C170.813 74.689 170.862 74.4444 170.854 74.1984C170.87 73.8244 170.76 73.4559 170.541 73.153C170.285 72.8561 169.94 72.6492 169.558 72.5624C169.232 72.4683 168.936 72.3899 168.669 72.3272L167.66 72.0763C167.322 71.9929 166.996 71.8701 166.687 71.7104C166.4 71.5535 166.143 71.3464 165.928 71.0989C165.704 70.8589 165.528 70.5787 165.408 70.273C165.283 69.9209 165.223 69.549 165.231 69.1754C165.224 68.7621 165.309 68.3525 165.481 67.9771C165.653 67.6016 165.907 67.2698 166.224 67.0063C166.931 66.4044 167.837 66.0911 168.762 66.1282C169.324 66.1262 169.884 66.1875 170.432 66.3111C170.937 66.4257 171.426 66.6012 171.889 66.8338V68.5273H171.779C171.4 68.1866 170.968 67.9111 170.5 67.7119C169.982 67.4833 169.422 67.3658 168.856 67.3669C168.3 67.3453 167.752 67.5068 167.296 67.8269C167.106 67.9651 166.952 68.1477 166.848 68.3589C166.743 68.5702 166.692 68.8038 166.698 69.0395C166.678 69.4302 166.804 69.8142 167.051 70.1162C167.331 70.4131 167.694 70.6188 168.092 70.7069C168.388 70.7853 168.752 70.8793 169.179 70.9787C169.605 71.078 169.964 71.1773 170.245 71.2609C170.868 71.4205 171.424 71.7757 171.831 72.2749C172.182 72.7605 172.364 73.3479 172.352 73.9475C172.351 74.3695 172.266 74.7871 172.102 75.1758C171.949 75.5729 171.709 75.9303 171.4 76.2211C171.067 76.5303 170.678 76.7733 170.255 76.9372C169.729 77.1187 169.173 77.1985 168.617 77.1724Z" fill="#3D3D3D"/>
<path d="M179.769 76.979H178.442V76.0905C178.09 76.4132 177.698 76.6906 177.277 76.9163C176.896 77.1076 176.476 77.2044 176.05 77.1985C175.72 77.2001 175.393 77.1435 175.082 77.0313C174.78 76.9229 174.507 76.7437 174.286 76.5086C174.051 76.2362 173.874 75.9176 173.766 75.573C173.632 75.1277 173.569 74.6637 173.579 74.1984V69.0082H174.905V73.5502C174.902 73.8993 174.918 74.2483 174.952 74.5956C174.976 74.8503 175.047 75.0983 175.16 75.3274C175.257 75.5187 175.409 75.6756 175.597 75.7769C175.849 75.8878 176.124 75.9379 176.398 75.9232C176.762 75.9133 177.119 75.8165 177.439 75.641C177.803 75.4575 178.142 75.2274 178.448 74.9563V69.0082H179.774L179.769 76.979Z" fill="#3D3D3D"/>
<path d="M188.294 72.7767C188.351 73.913 188.019 75.0348 187.353 75.9546C187.077 76.3265 186.717 76.6275 186.303 76.8328C185.889 77.0382 185.432 77.142 184.97 77.1358C184.619 77.1408 184.269 77.095 183.93 76.9999C183.604 76.8998 183.293 76.7575 183.004 76.5766V79.9217H181.678V69.0082H183.004V69.8444C183.333 69.5424 183.702 69.289 184.102 69.0918C184.51 68.8856 184.961 68.7799 185.418 68.7834C185.833 68.7695 186.244 68.8621 186.614 69.0523C186.983 69.2425 187.298 69.5241 187.529 69.8706C188.075 70.7377 188.341 71.7522 188.294 72.7767ZM186.926 72.9283C186.964 72.1956 186.815 71.4653 186.494 70.8062C186.356 70.5616 186.152 70.3613 185.905 70.2281C185.659 70.095 185.38 70.0345 185.1 70.0535C184.721 70.0525 184.347 70.1402 184.008 70.3096C183.649 70.4845 183.314 70.704 183.009 70.963V75.4842C183.295 75.6318 183.595 75.7491 183.904 75.8344C184.182 75.9007 184.466 75.9323 184.752 75.9284C185.061 75.9423 185.368 75.88 185.647 75.747C185.927 75.6139 186.169 75.4142 186.354 75.1653C186.778 74.5002 186.978 73.7162 186.926 72.9283Z" fill="#3D3D3D"/>
<path d="M196.278 72.7767C196.336 73.913 196.003 75.0348 195.337 75.9546C195.061 76.3262 194.701 76.627 194.287 76.8323C193.873 77.0375 193.416 77.1416 192.955 77.1358C192.603 77.1408 192.253 77.095 191.914 76.9999C191.589 76.8998 191.277 76.7575 190.988 76.5766V79.9217H189.662V69.0082H190.988V69.8444C191.317 69.5424 191.686 69.289 192.086 69.0918C192.494 68.8851 192.945 68.7793 193.402 68.7834C193.817 68.7695 194.228 68.8621 194.598 69.0523C194.967 69.2425 195.283 69.5241 195.514 69.8706C196.059 70.7377 196.326 71.7522 196.278 72.7767ZM194.91 72.9283C194.948 72.1956 194.799 71.4653 194.479 70.8062C194.34 70.5608 194.135 70.3599 193.887 70.2267C193.64 70.0935 193.36 70.0335 193.079 70.0535C192.702 70.0531 192.33 70.1408 191.992 70.3096C191.634 70.4845 191.298 70.704 190.994 70.963V75.4842C191.279 75.6318 191.579 75.7491 191.888 75.8344C192.166 75.901 192.451 75.9326 192.736 75.9284C193.045 75.9423 193.352 75.88 193.632 75.747C193.911 75.6139 194.153 75.4142 194.338 75.1653C194.762 74.5002 194.962 73.7162 194.91 72.9283Z" fill="#3D3D3D"/>
<path d="M199.004 76.979H197.657V65.8721H198.983L199.004 76.979Z" fill="#3D3D3D"/>
<path d="M207.144 69.0082L202.905 79.9322H201.49L202.9 76.6027L200.034 69.0082H201.469L203.618 74.9197L205.761 69.0082H207.144Z" fill="#3D3D3D"/>
<path d="M14.0851 43.5326V51.4773H12.4102V43.5326H10.7354V41.8286H15.76V43.5378L14.0851 43.5326Z" fill="#3D3D3D"/>
<path d="M24.254 51.4773V47.7819C24.254 46.2662 23.8847 45.6912 22.9328 45.6912C21.981 45.6912 21.5024 46.2139 21.5024 47.8342V51.493H19.8744V41.8286H21.5024V44.7399C21.7279 44.5143 21.997 44.3376 22.2931 44.2208C22.5893 44.1039 22.9062 44.0493 23.2241 44.0605C24.8522 44.0605 25.8769 45.017 25.8769 47.3952V51.4825L24.254 51.4773Z" fill="#3D3D3D"/>
<path d="M37.3514 48.6235H32.1083C32.1973 49.0469 32.435 49.424 32.7778 49.686C33.1206 49.948 33.5458 50.0773 33.9756 50.0504C34.2653 50.07 34.555 50.0139 34.8166 49.8874C35.0783 49.761 35.3028 49.5687 35.4684 49.3291H37.2421C37.0212 50.0105 36.5888 50.6029 36.0085 51.0196C35.4282 51.4363 34.7304 51.6553 34.0172 51.6445C33.0496 51.6078 32.133 51.199 31.4568 50.5026C30.7805 49.8061 30.3964 48.8753 30.3837 47.9023C30.371 46.9294 30.7308 45.9887 31.3886 45.2747C32.0464 44.5607 32.9521 44.1279 33.9184 44.0657C35.9366 44.0657 37.4138 45.7121 37.4138 47.9597C37.4196 48.1826 37.3986 48.4055 37.3514 48.6235ZM33.9392 45.6599C33.5064 45.635 33.079 45.766 32.7339 46.0295C32.3887 46.293 32.1484 46.6716 32.0563 47.0972H35.8117C35.7331 46.6671 35.4976 46.2819 35.1513 46.017C34.805 45.7522 34.3727 45.6267 33.9392 45.6651V45.6599Z" fill="#3D3D3D"/>
<path d="M47.1666 43.5326V45.8062H49.9338V47.5206H47.1666V51.4773H45.4917V41.8286H50.0898V43.5378L47.1666 43.5326Z" fill="#3D3D3D"/>
<path d="M59.9883 51.4773V50.5365C59.7322 50.8931 59.3929 51.1811 59.0002 51.3752C58.6076 51.5693 58.1734 51.6636 57.736 51.6498C55.7543 51.6498 54.3238 50.0817 54.3238 47.8865C54.3238 45.6912 55.7647 44.0709 57.7724 44.0709C58.2085 44.0468 58.6432 44.139 59.0323 44.3382C59.4215 44.5374 59.7513 44.8365 59.9883 45.2051V44.2382H61.4811V51.4773H59.9883ZM57.9441 45.6651C56.7842 45.6651 55.9623 46.6059 55.9623 47.9231C55.9404 48.199 55.9764 48.4764 56.068 48.7374C56.1595 48.9985 56.3047 49.2372 56.494 49.4383C56.6833 49.6393 56.9125 49.7982 57.1668 49.9045C57.4211 50.0109 57.6947 50.0623 57.9701 50.0556C59.2028 50.0556 59.9363 49.1148 59.9363 47.9126C59.9363 46.5902 59.104 45.6651 57.9441 45.6651Z" fill="#3D3D3D"/>
<path d="M74.6565 51.4773V47.5049C74.6565 46.0571 74.1363 45.6651 73.3821 45.6651C72.477 45.6651 72.0141 46.1878 72.0141 47.9126V51.4773H70.386V47.5049C70.386 46.0832 69.9231 45.6651 69.0649 45.6651C68.1234 45.6651 67.7437 46.1878 67.7437 47.9126V51.4773H66.1156V44.2382H67.6189V44.9177C67.8153 44.6358 68.0808 44.4097 68.3897 44.2614C68.6987 44.113 69.0405 44.0474 69.3822 44.0709C69.7871 44.0425 70.1915 44.1338 70.5455 44.3335C70.8994 44.5331 71.1876 44.8325 71.3743 45.1947C71.6067 44.8309 71.9307 44.5353 72.3135 44.338C72.6962 44.1406 73.1241 44.0485 73.5538 44.0709C75.3379 44.0709 76.2897 45.1163 76.2897 47.2959V51.4773H74.6565Z" fill="#3D3D3D"/>
<path d="M81.0439 51.4773V44.2382H82.6668V51.4773H81.0439ZM81.0439 43.198V41.4575H82.7032V43.198H81.0439Z" fill="#3D3D3D"/>
<path d="M87.3845 51.4773V41.8286H89.0074V51.4773H87.3845Z" fill="#3D3D3D"/>
<path d="M96.1386 53.8921H94.3909L95.6601 50.7978L93.179 44.2382H95.0359L96.5392 48.9423L98.1776 44.2382H100.05L96.1386 53.8921Z" fill="#3D3D3D"/>
<path d="M114.167 51.4773L113.205 48.9841H109.985L108.981 51.4773H107.15L110.906 41.8286H112.222L115.993 51.4773H114.167ZM111.566 44.3427L110.599 47.2697H112.529L111.566 44.3427Z" fill="#3D3D3D"/>
<path d="M125.532 51.4773V50.5365C125.277 50.8902 124.94 51.1763 124.551 51.3703C124.161 51.5642 123.73 51.6601 123.296 51.6498C121.376 51.6498 119.894 49.9877 119.894 47.8447C119.894 45.7017 121.387 43.9768 123.285 43.9768C123.682 43.9669 124.076 44.0424 124.441 44.1984C124.806 44.3544 125.134 44.5871 125.402 44.8811V41.8286H127.025V51.4773H125.532ZM123.514 45.571C123.241 45.5844 122.973 45.6518 122.725 45.7695C122.478 45.8871 122.256 46.0526 122.073 46.2566C121.889 46.4605 121.747 46.6988 121.655 46.9579C121.564 47.2169 121.524 47.4916 121.538 47.7663C121.518 48.0503 121.555 48.3355 121.646 48.6051C121.737 48.8747 121.881 49.1233 122.069 49.3364C122.257 49.5496 122.485 49.7229 122.74 49.8464C122.995 49.9699 123.273 50.041 123.556 50.0556C124.102 49.9856 124.603 49.7168 124.965 49.3001C125.326 48.8833 125.523 48.3477 125.518 47.7947C125.513 47.2417 125.306 46.7099 124.937 46.3C124.567 45.8901 124.061 45.6307 123.514 45.571Z" fill="#3D3D3D"/>
<path d="M135.067 51.4773H133.766L131.041 44.2382H132.851L134.411 49.0364L135.972 44.2382H137.808L135.067 51.4773Z" fill="#3D3D3D"/>
<path d="M147.337 51.4773V50.5365C147.081 50.8931 146.742 51.1811 146.349 51.3752C145.956 51.5693 145.522 51.6636 145.085 51.6498C143.103 51.6498 141.672 50.0817 141.672 47.8865C141.672 45.6912 143.113 44.0709 145.121 44.0709C145.557 44.0473 145.992 44.1398 146.381 44.3389C146.77 44.5381 147.1 44.8369 147.337 45.2051V44.2382H148.825V51.4773H147.337ZM145.293 45.6651C144.133 45.6651 143.311 46.6059 143.311 47.9231C143.289 48.199 143.325 48.4764 143.417 48.7374C143.508 48.9985 143.653 49.2372 143.843 49.4383C144.032 49.6393 144.261 49.7982 144.515 49.9045C144.77 50.0109 145.043 50.0623 145.319 50.0556C146.551 50.0556 147.285 49.1148 147.285 47.9126C147.285 46.5902 146.453 45.6651 145.293 45.6651Z" fill="#3D3D3D"/>
<path d="M157.854 51.4773V47.9387C157.854 46.0048 157.365 45.6651 156.559 45.6651C156.319 45.6579 156.081 45.7157 155.871 45.8325C155.66 45.9493 155.485 46.1207 155.363 46.3289C155.155 46.6843 155.092 47.1025 155.092 48.0694V51.4773H153.443V44.2382H154.947V44.9333C155.181 44.6563 155.474 44.4351 155.804 44.286C156.135 44.1368 156.494 44.0633 156.856 44.0709C157.268 44.0465 157.68 44.13 158.051 44.3132C158.422 44.4964 158.74 44.7731 158.973 45.1163C159.342 45.6755 159.462 46.3028 159.462 47.599V51.4773H157.854Z" fill="#3D3D3D"/>
<path d="M166.104 45.8219V51.4773H164.476V45.8219H163.68V44.2539H164.476V41.8286H166.104V44.2434H167.082V45.8114L166.104 45.8219Z" fill="#3D3D3D"/>
<path d="M176.694 51.4773V50.5365C176.44 50.8934 176.101 51.1816 175.709 51.3758C175.317 51.57 174.884 51.6641 174.447 51.6498C172.465 51.6498 171.035 50.0817 171.035 47.8865C171.035 45.6912 172.476 44.0709 174.483 44.0709C174.919 44.0466 175.353 44.1388 175.741 44.3381C176.13 44.5373 176.458 44.8365 176.694 45.2051V44.2382H178.187V51.4773H176.694ZM174.655 45.6651C173.49 45.6651 172.673 46.6059 172.673 47.9231C172.651 48.1985 172.687 48.4755 172.779 48.7362C172.87 48.9968 173.015 49.2353 173.203 49.4363C173.392 49.6373 173.621 49.7962 173.874 49.9029C174.128 50.0096 174.401 50.0616 174.676 50.0556C175.914 50.0556 176.647 49.1148 176.647 47.9126C176.647 46.5902 175.81 45.6651 174.655 45.6651Z" fill="#3D3D3D"/>
<path d="M186.13 54.3729C185.382 54.412 184.64 54.2107 184.014 53.7981C183.387 53.3855 182.908 52.7832 182.645 52.0784H184.491C184.69 52.3376 184.949 52.5434 185.245 52.6774C185.542 52.8115 185.867 52.8696 186.192 52.8467C187.399 52.8467 188.023 52.0888 188.085 50.5365C187.838 50.896 187.504 51.1873 187.115 51.3836C186.726 51.58 186.294 51.6751 185.859 51.6602C183.929 51.6602 182.53 50.0504 182.53 47.8185C182.53 45.6755 183.95 44.0814 185.87 44.0814C186.3 44.0538 186.731 44.139 187.12 44.3286C187.508 44.5182 187.841 44.8058 188.085 45.1633V44.2382H189.646V50.1079C189.641 53.2178 188.231 54.3729 186.13 54.3729ZM186.057 45.6755C184.918 45.6755 184.174 46.5641 184.174 47.8969C184.174 49.2298 184.918 50.0661 186.078 50.0661C187.238 50.0661 188.013 49.2036 188.013 47.8969C188.013 46.5902 187.217 45.6651 186.057 45.6651V45.6755Z" fill="#3D3D3D"/>
<path d="M201.042 48.6235H195.794C195.884 49.0473 196.123 49.4245 196.467 49.6864C196.81 49.9483 197.236 50.0775 197.667 50.0504C197.956 50.0695 198.246 50.0131 198.507 49.8867C198.769 49.7604 198.993 49.5683 199.159 49.3291H200.928C200.708 50.011 200.275 50.6038 199.695 51.0206C199.115 51.4374 198.416 51.6561 197.703 51.6445C196.735 51.6078 195.819 51.199 195.143 50.5026C194.466 49.8061 194.082 48.8753 194.069 47.9023C194.057 46.9294 194.417 45.9887 195.074 45.2747C195.732 44.5607 196.638 44.1279 197.604 44.0657C199.622 44.0657 201.1 45.7121 201.1 47.9597C201.104 48.1824 201.085 48.4049 201.042 48.6235ZM197.656 45.6651C197.223 45.6391 196.795 45.7698 196.45 46.0334C196.104 46.2971 195.864 46.6763 195.773 47.1025H199.523C199.447 46.6718 199.213 46.2854 198.868 46.0194C198.522 45.7534 198.09 45.627 197.656 45.6651Z" fill="#3D3D3D"/>
<path fill-rule="evenodd" clip-rule="evenodd" d="M22.5016 23.9061L35.1725 0.7618H54.7665C60.4309 11.5133 65.9965 22.406 71.869 32.9955H61.1435L58.0746 27.6328H38.7199L42.3921 19.8762H54.6157L48.6287 8.83721H41.2322L28.5406 32.9955H16.7904L0 0.7618H10.5798L22.5016 23.9061Z" fill="#EA1317"/>
<path fill-rule="evenodd" clip-rule="evenodd" d="M81.9339 32.9746H72.5504V0.41683H86.7921L98.0481 20.7491L109.502 0.41683H123.546V32.9746H114.209V9.77803L101.169 32.9746H94.87L81.9339 9.77803V32.9746Z" fill="#EA1317"/>
<path fill-rule="evenodd" clip-rule="evenodd" d="M141.923 19.7194H154.323L148.081 8.22044L141.938 19.7194H141.923ZM135.046 32.9746H124.316L141.923 0.41683H154.484L171.784 32.9746H160.965L157.844 27.5544H138.193L135.046 32.9746Z" fill="#EA1317"/>
<path fill-rule="evenodd" clip-rule="evenodd" d="M209.927 21.2404H200.257V21.5697C200.301 22.0981 200.211 22.629 199.998 23.1138C199.784 23.5986 199.453 24.022 199.035 24.3451C198.224 24.9357 196.954 25.2285 195.17 25.2285H187.451C184.143 25.2285 182.019 24.8173 181.079 23.9949C180.14 23.1726 179.67 21.4512 179.67 18.8308V14.5553C179.67 11.9384 180.14 10.2188 181.079 9.39647C182.019 8.57412 184.143 8.16295 187.451 8.16295H195.176C196.944 8.16295 198.229 8.45565 199.04 9.04628C199.458 9.36999 199.788 9.79358 200 10.2784C200.213 10.7632 200.301 11.2938 200.257 11.8217V12.151H209.922C209.953 11.921 209.974 11.6701 209.984 11.4192C209.995 11.1684 209.984 10.792 209.984 10.3164C210.029 8.61582 209.79 6.91967 209.277 5.29866C208.861 4.04374 208.096 2.93521 207.071 2.10509C205.922 1.26639 204.593 0.711315 203.191 0.484779C200.659 0.106457 198.099 -0.0509344 195.54 0.0143671H184.757C179.119 0.0143671 175.224 0.937768 173.074 2.78457C171.015 4.55123 169.943 7.61413 169.86 11.9733V21.4442C169.943 25.8034 171.015 28.868 173.074 30.6382C175.221 32.485 179.115 33.4084 184.757 33.4084H195.54C198.099 33.472 200.659 33.3128 203.191 32.9328C204.593 32.7062 205.922 32.1511 207.071 31.3124C208.1 30.4862 208.869 29.3791 209.287 28.1241C209.801 26.5031 210.04 24.8069 209.995 23.1064C209.995 22.6307 209.995 22.2596 209.995 22.0035C209.995 21.7474 209.958 21.4704 209.927 21.2404Z" fill="#EA1317"/>
</svg>
